<?xml version="1.0" encoding="UTF-8" standalone="no"?>
<!-- Creator: CorelDRAW -->

<svg
   xml:space="preserve"
   width="8.5in"
   height="11in"
   style="shape-rendering:geometricPrecision; text-rendering:geometricPrecision; image-rendering:optimizeQuality; fill-rule:evenodd; clip-rule:evenodd"
   viewBox="0 0 8.5 11"
   version="1.1"
   id="svg15942"
   sodipodi:docname="solartracker-bottom.svg"
   inkscape:version="1.2.2 (b0a8486, 2022-12-01)"
   xmlns:inkscape="http://www.inkscape.org/namespaces/inkscape"
   xmlns:sodipodi="http://sodipodi.sourceforge.net/DTD/sodipodi-0.dtd"
   xmlns="http://www.w3.org/2000/svg"
   xmlns:svg="http://www.w3.org/2000/svg"><sodipodi:namedview
   id="namedview15944"
   pagecolor="#ffffff"
   bordercolor="#000000"
   borderopacity="0.25"
   inkscape:showpageshadow="2"
   inkscape:pageopacity="0.0"
   inkscape:pagecheckerboard="0"
   inkscape:deskcolor="#d1d1d1"
   inkscape:document-units="in"
   showgrid="false"
   inkscape:zoom="0.48705552"
   inkscape:cx="-343.9033"
   inkscape:cy="400.36504"
   inkscape:window-width="1792"
   inkscape:window-height="952"
   inkscape:window-x="-34"
   inkscape:window-y="59"
   inkscape:window-maximized="0"
   inkscape:current-layer="_0" />
 <defs
   id="defs15390">
  <style
   type="text/css"
   id="style15388">
   <![CDATA[
    .str1 {stroke:#1F1A17;stroke-width:0.003}
    .str0 {stroke:black;stroke-width:0.003;stroke-linejoin:bevel}
    .str2 {stroke:black;stroke-width:0.003}
    .str3 {stroke:blue;stroke-width:0.003}
    .str4 {stroke:blue;stroke-width:0.003;stroke-linecap:round;stroke-linejoin:round}
    .fil0 {fill:none}
    .fil1 {fill:none;fill-rule:nonzero}
   ]]>
  </style>
 </defs>
 <g
   id="_0"
   inkscape:label="_0">
  <metadata
   id="CorelCorpID_0Corel-Layer" />
  <line
   class="fil0 str0"
   x1="-7.0125771"
   y1="2.0549583"
   x2="-7.0125771"
   y2="6.188818"
   id="line15393" />
  <line
   class="fil0 str0"
   x1="-6.6410069"
   y1="3.1475382"
   x2="-6.4642272"
   y2="2.9707582"
   id="line15395" />
  <line
   class="fil0 str0"
   x1="-5.9826169"
   y1="2.4891484"
   x2="-5.8058372"
   y2="2.3123682"
   id="line15397" />
  <line
   class="fil0 str0"
   x1="-6.4642272"
   y1="3.3243082"
   x2="-6.287447"
   y2="3.1475382"
   id="line15399" />
  <line
   class="fil0 str0"
   x1="-5.8058372"
   y1="2.6659184"
   x2="-5.6290569"
   y2="2.4891484"
   id="line15401" />
  <line
   class="fil0 str0"
   x1="-5.8058372"
   y1="5.9314179"
   x2="-5.9826169"
   y2="5.7546382"
   id="line15403" />
  <line
   class="fil0 str0"
   x1="-6.4642272"
   y1="5.2730279"
   x2="-6.6410069"
   y2="5.0962582"
   id="line15405" />
  <line
   class="fil0 str0"
   x1="-5.6290569"
   y1="5.7546382"
   x2="-5.8058372"
   y2="5.577868"
   id="line15407" />
  <line
   class="fil0 str0"
   x1="-6.287447"
   y1="5.0962582"
   x2="-6.4642272"
   y2="4.9194779"
   id="line15409" />
  <line
   class="fil0 str0"
   x1="-6.4642272"
   y1="4.9194779"
   x2="-6.6410069"
   y2="5.0962582"
   id="line15411" />
  <line
   class="fil0 str0"
   x1="-4.0338969"
   y1="2.4891484"
   x2="-3.8571172"
   y2="2.3123682"
   id="line15413" />
  <line
   class="fil0 str0"
   x1="-3.6803372"
   y1="2.4891484"
   x2="-3.8571172"
   y2="2.6659184"
   id="line15415" />
  <line
   class="fil0 str0"
   x1="-6.287447"
   y1="5.0962582"
   x2="-6.4642272"
   y2="5.2730279"
   id="line15417" />
  <line
   class="fil0 str0"
   x1="-5.9826169"
   y1="5.7546382"
   x2="-5.8058372"
   y2="5.577868"
   id="line15419" />
  <line
   class="fil0 str0"
   x1="-3.3755071"
   y1="3.1475382"
   x2="-3.1987271"
   y2="2.9707582"
   id="line15421" />
  <line
   class="fil0 str0"
   x1="-5.6290569"
   y1="5.7546382"
   x2="-5.8058372"
   y2="5.9314179"
   id="line15423" />
  <line
   class="fil0 str0"
   x1="-3.1987271"
   y1="3.3243082"
   x2="-3.0219471"
   y2="3.1475382"
   id="line15425" />
  <line
   class="fil0 str0"
   x1="4.09903"
   y1="8.05148"
   x2="4.19746"
   y2="8.05148"
   id="line15427" />
  <line
   class="fil0 str0"
   x1="4.78801"
   y1="8.05148"
   x2="4.88643"
   y2="8.05148"
   id="line15429" />
  <line
   class="fil0 str0"
   x1="4.78801"
   y1="7.80148"
   x2="4.57935"
   y2="7.80148"
   id="line15431" />
  <line
   class="fil0 str0"
   x1="4.40612"
   y1="7.80148"
   x2="4.19746"
   y2="7.80148"
   id="line15433" />
  <line
   class="fil0 str0"
   x1="-4.0338969"
   y1="5.7546382"
   x2="-3.8571172"
   y2="5.9314179"
   id="line15435" />
  <line
   class="fil0 str0"
   x1="-6.4642272"
   y1="3.3243082"
   x2="-6.6410069"
   y2="3.1475382"
   id="line15437" />
  <line
   class="fil0 str0"
   x1="-6.4642272"
   y1="2.9707582"
   x2="-6.287447"
   y2="3.1475382"
   id="line15439" />
  <line
   class="fil0 str0"
   x1="-3.8571172"
   y1="5.577868"
   x2="-3.6803372"
   y2="5.7546382"
   id="line15441" />
  <line
   class="fil0 str0"
   x1="4.31557"
   y1="7.60463"
   x2="4.40612"
   y2="7.60463"
   id="line15443" />
  <line
   class="fil0 str0"
   x1="4.57935"
   y1="7.60463"
   x2="4.6699"
   y2="7.60463"
   id="line15445" />
  <line
   class="fil0 str0"
   x1="4.31557"
   y1="7.44715"
   x2="4.40612"
   y2="7.44715"
   id="line15447" />
  <line
   class="fil0 str0"
   x1="4.57935"
   y1="7.44715"
   x2="4.6699"
   y2="7.44715"
   id="line15449" />
  <line
   class="fil0 str0"
   x1="-3.1987271"
   y1="4.9194779"
   x2="-3.3755071"
   y2="5.0962582"
   id="line15451" />
  <line
   class="fil0 str0"
   x1="-3.8571172"
   y1="5.577868"
   x2="-4.0338969"
   y2="5.7546382"
   id="line15453" />
  <line
   class="fil0 str0"
   x1="4.40612"
   y1="7.26211"
   x2="4.57935"
   y2="7.26211"
   id="line15455" />
  <line
   class="fil0 str0"
   x1="-3.1987271"
   y1="5.2730279"
   x2="-3.3755071"
   y2="5.0962582"
   id="line15457" />
  <line
   class="fil0 str0"
   x1="-5.8058372"
   y1="2.6659184"
   x2="-5.9826169"
   y2="2.4891484"
   id="line15459" />
  <line
   class="fil0 str0"
   x1="-3.1987271"
   y1="4.9194779"
   x2="-3.0219471"
   y2="5.0962582"
   id="line15461" />
  <line
   class="fil0 str0"
   x1="-5.6290569"
   y1="2.4891484"
   x2="-5.8058372"
   y2="2.3123682"
   id="line15463" />
  <line
   class="fil0 str0"
   x1="-3.0219471"
   y1="5.0962582"
   x2="-3.1987271"
   y2="5.2730279"
   id="line15465" />
  <line
   class="fil0 str0"
   x1="-3.6803372"
   y1="5.7546382"
   x2="-3.8571172"
   y2="5.9314179"
   id="line15467" />
  <line
   class="fil0 str0"
   x1="-6.6144943"
   y1="6.5825181"
   x2="1.8194982"
   y2="6.5825181"
   id="line15469" />
  <path
   class="fil0 str0"
   d="M6.46123 6.37826l0 0m0 0l-0.25 0"
   id="path15471" />
  <line
   class="fil0 str0"
   x1="2.52423"
   y1="6.37826"
   x2="2.77423"
   y2="6.37826"
   id="line15473" />
  <line
   class="fil0 str0"
   x1="6.01439"
   y1="6.26015"
   x2="5.85691"
   y2="6.26015"
   id="line15475" />
  <line
   class="fil0 str0"
   x1="2.97108"
   y1="6.26015"
   x2="3.12856"
   y2="6.26015"
   id="line15477" />
  <path
   class="fil0 str0"
   d="M6.21123 6.16959l0 0m0 0l-0.196846 0"
   id="path15479" />
  <line
   class="fil0 str0"
   x1="5.85691"
   y1="6.16959"
   x2="5.67187"
   y2="6.16959"
   id="line15481" />
  <line
   class="fil0 str0"
   x1="2.77423"
   y1="6.16959"
   x2="2.97108"
   y2="6.16959"
   id="line15483" />
  <line
   class="fil0 str0"
   x1="3.12856"
   y1="6.16959"
   x2="3.3136"
   y2="6.16959"
   id="line15485" />
  <path
   class="fil0 str0"
   d="M6.21123 5.99637l0 0m0 0l-0.196846 0"
   id="path15487" />
  <line
   class="fil0 str0"
   x1="5.85691"
   y1="5.99637"
   x2="5.67187"
   y2="5.99637"
   id="line15489" />
  <line
   class="fil0 str0"
   x1="2.77423"
   y1="5.99637"
   x2="2.97108"
   y2="5.99637"
   id="line15491" />
  <line
   class="fil0 str0"
   x1="3.12856"
   y1="5.99637"
   x2="3.3136"
   y2="5.99637"
   id="line15493" />
  <line
   class="fil0 str0"
   x1="6.01439"
   y1="5.90581"
   x2="5.85691"
   y2="5.90581"
   id="line15495" />
  <line
   class="fil0 str0"
   x1="2.97108"
   y1="5.90581"
   x2="3.12856"
   y2="5.90581"
   id="line15497" />
  <line
   class="fil0 str0"
   x1="-4.0338969"
   y1="2.4891484"
   x2="-3.8571172"
   y2="2.6659184"
   id="line15499" />
  <line
   class="fil0 str0"
   x1="-3.3755071"
   y1="3.1475382"
   x2="-3.1987271"
   y2="3.3243082"
   id="line15501" />
  <path
   class="fil0 str0"
   d="M6.46123 5.7877l0 0m0 0l-0.25 0"
   id="path15503" />
  <line
   class="fil0 str0"
   x1="2.52423"
   y1="5.7877"
   x2="2.77423"
   y2="5.7877"
   id="line15505" />
  <line
   class="fil0 str0"
   x1="-3.8571172"
   y1="2.3123682"
   x2="-3.6803372"
   y2="2.4891484"
   id="line15507" />
  <line
   class="fil0 str0"
   x1="-3.1987271"
   y1="2.9707582"
   x2="-3.0219471"
   y2="3.1475382"
   id="line15509" />
  <line
   class="fil0 str0"
   x1="4.57935"
   y1="4.90385"
   x2="4.40612"
   y2="4.90385"
   id="line15511" />
  <line
   class="fil0 str0"
   x1="4.6699"
   y1="4.71881"
   x2="4.57935"
   y2="4.71881"
   id="line15513" />
  <line
   class="fil0 str0"
   x1="4.40612"
   y1="4.71881"
   x2="4.31557"
   y2="4.71881"
   id="line15515" />
  <line
   class="fil0 str0"
   x1="4.6699"
   y1="4.56133"
   x2="4.57935"
   y2="4.56133"
   id="line15517" />
  <line
   class="fil0 str0"
   x1="4.40612"
   y1="4.56133"
   x2="4.31557"
   y2="4.56133"
   id="line15519" />
  <line
   class="fil0 str0"
   x1="4.19746"
   y1="4.36448"
   x2="4.40612"
   y2="4.36448"
   id="line15521" />
  <line
   class="fil0 str0"
   x1="4.57935"
   y1="4.36448"
   x2="4.78801"
   y2="4.36448"
   id="line15523" />
  <line
   class="fil0 str0"
   x1="2.57147"
   y1="2.85432"
   x2="2.37462"
   y2="3.44487"
   id="line15525" />
  <line
   class="fil0 str0"
   x1="4.88643"
   y1="4.11448"
   x2="4.78801"
   y2="4.11448"
   id="line15527" />
  <line
   class="fil0 str0"
   x1="4.19746"
   y1="4.11448"
   x2="4.09903"
   y2="4.11448"
   id="line15529" />
  <line
   class="fil0 str0"
   x1="3.85244"
   y1="6.38921"
   x2="4.1865"
   y2="6.72328"
   id="line15531" />
  <line
   class="fil0 str0"
   x1="2.2156005"
   y1="6.188818"
   x2="2.2156005"
   y2="2.0549583"
   id="line15533" />
  <line
   class="fil0 str0"
   x1="2.37462"
   y1="3.44487"
   x2="2.37462"
   y2="3.69487"
   id="line15535" />
  <line
   class="fil0 str0"
   x1="2.52423"
   y1="5.68928"
   x2="2.52423"
   y2="5.7877"
   id="line15537" />
  <line
   class="fil0 str0"
   x1="2.52423"
   y1="6.37826"
   x2="2.52423"
   y2="6.47668"
   id="line15539" />
  <line
   class="fil0 str0"
   x1="2.57147"
   y1="2.45412"
   x2="2.57147"
   y2="2.85432"
   id="line15541" />
  <path
   class="fil0 str0"
   d="M7.68958 3.69487l0 0m0 0l-0.25 0"
   id="path15543" />
  <path
   class="fil0 str0"
   d="M6.75848 3.69487l0 0m0 0l-0.25 0"
   id="path15545" />
  <path
   class="fil0 str0"
   d="M6.31163 3.69487l0 0m0 0l-0.249996 0"
   id="path15547" />
  <line
   class="fil0 str0"
   x1="5.38053"
   y1="3.69487"
   x2="5.13053"
   y2="3.69487"
   id="line15549" />
  <line
   class="fil0 str0"
   x1="4.93368"
   y1="3.69487"
   x2="4.68368"
   y2="3.69487"
   id="line15551" />
  <line
   class="fil0 str0"
   x1="4.00257"
   y1="3.69487"
   x2="3.75257"
   y2="3.69487"
   id="line15553" />
  <line
   class="fil0 str0"
   x1="3.55572"
   y1="3.69487"
   x2="3.30572"
   y2="3.69487"
   id="line15555" />
  <line
   class="fil0 str0"
   x1="2.62462"
   y1="3.69487"
   x2="2.37462"
   y2="3.69487"
   id="line15557" />
  <line
   class="fil0 str0"
   x1="2.62462"
   y1="3.44487"
   x2="2.87856"
   y2="3.44487"
   id="line15559" />
  <line
   class="fil0 str0"
   x1="3.05179"
   y1="3.44487"
   x2="3.30572"
   y2="3.44487"
   id="line15561" />
  <line
   class="fil0 str0"
   x1="4.00257"
   y1="3.44487"
   x2="4.25651"
   y2="3.44487"
   id="line15563" />
  <line
   class="fil0 str0"
   x1="4.42974"
   y1="3.44487"
   x2="4.68368"
   y2="3.44487"
   id="line15565" />
  <line
   class="fil0 str0"
   x1="5.38053"
   y1="3.44487"
   x2="5.63446"
   y2="3.44487"
   id="line15567" />
  <line
   class="fil0 str0"
   x1="5.80769"
   y1="3.44487"
   x2="6.06163"
   y2="3.44487"
   id="line15569" />
  <path
   class="fil0 str0"
   d="M7.01241 3.44487l0 0m-0.253937 0l0.253937 0"
   id="path15571" />
  <path
   class="fil0 str0"
   d="M7.43958 3.44487l0 0m-0.253937 0l0.253937 0"
   id="path15573" />
  <line
   class="fil0 str0"
   x1="3.43485"
   y1="5.3035"
   x2="3.79676"
   y2="5.6654"
   id="line15575" />
  <line
   class="fil0 str0"
   x1="2.62462"
   y1="3.44487"
   x2="2.62462"
   y2="3.69487"
   id="line15577" />
  <line
   class="fil0 str0"
   x1="2.6699"
   y1="2.20412"
   x2="2.6699"
   y2="2.45412"
   id="line15579" />
  <line
   class="fil0 str0"
   x1="2.77423"
   y1="6.37826"
   x2="2.77423"
   y2="6.16959"
   id="line15581" />
  <line
   class="fil0 str0"
   x1="2.77423"
   y1="5.99637"
   x2="2.77423"
   y2="5.7877"
   id="line15583" />
  <line
   class="fil0 str0"
   x1="2.78801"
   y1="3.24802"
   x2="2.78801"
   y2="3.09054"
   id="line15585" />
  <line
   class="fil0 str0"
   x1="2.87856"
   y1="3.44487"
   x2="2.87856"
   y2="3.24802"
   id="line15587" />
  <line
   class="fil0 str0"
   x1="2.87856"
   y1="3.09054"
   x2="2.87856"
   y2="2.9055"
   id="line15589" />
  <line
   class="fil0 str0"
   x1="2.97108"
   y1="5.90581"
   x2="2.97108"
   y2="5.99637"
   id="line15591" />
  <line
   class="fil0 str0"
   x1="2.97108"
   y1="6.16959"
   x2="2.97108"
   y2="6.26015"
   id="line15593" />
  <line
   class="fil0 str0"
   x1="3.05179"
   y1="3.44487"
   x2="3.05179"
   y2="3.24802"
   id="line15595" />
  <line
   class="fil0 str0"
   x1="3.05179"
   y1="3.09054"
   x2="3.05179"
   y2="2.9055"
   id="line15597" />
  <line
   class="fil0 str0"
   x1="3.71324"
   y1="5.02511"
   x2="3.43485"
   y2="5.3035"
   id="line15599" />
  <line
   class="fil0 str0"
   x1="2.78801"
   y1="3.24802"
   x2="2.87856"
   y2="3.24802"
   id="line15601" />
  <line
   class="fil0 str0"
   x1="3.05179"
   y1="3.24802"
   x2="3.14234"
   y2="3.24802"
   id="line15603" />
  <line
   class="fil0 str0"
   x1="4.16596"
   y1="3.24802"
   x2="4.25651"
   y2="3.24802"
   id="line15605" />
  <line
   class="fil0 str0"
   x1="4.42974"
   y1="3.24802"
   x2="4.52029"
   y2="3.24802"
   id="line15607" />
  <line
   class="fil0 str0"
   x1="5.54391"
   y1="3.24802"
   x2="5.63446"
   y2="3.24802"
   id="line15609" />
  <line
   class="fil0 str0"
   x1="5.80769"
   y1="3.24802"
   x2="5.89824"
   y2="3.24802"
   id="line15611" />
  <path
   class="fil0 str0"
   d="M7.01241 3.24802l0 0m-0.0905512 0l0.0905512 0"
   id="path15613" />
  <path
   class="fil0 str0"
   d="M7.27619 3.24802l0 0m-0.0905512 0l0.0905512 0"
   id="path15615" />
  <line
   class="fil0 str0"
   x1="2.78801"
   y1="3.09054"
   x2="2.87856"
   y2="3.09054"
   id="line15617" />
  <line
   class="fil0 str0"
   x1="3.05179"
   y1="3.09054"
   x2="3.14234"
   y2="3.09054"
   id="line15619" />
  <line
   class="fil0 str0"
   x1="4.16596"
   y1="3.09054"
   x2="4.25651"
   y2="3.09054"
   id="line15621" />
  <line
   class="fil0 str0"
   x1="4.42974"
   y1="3.09054"
   x2="4.52029"
   y2="3.09054"
   id="line15623" />
  <line
   class="fil0 str0"
   x1="5.54391"
   y1="3.09054"
   x2="5.63446"
   y2="3.09054"
   id="line15625" />
  <line
   class="fil0 str0"
   x1="5.80769"
   y1="3.09054"
   x2="5.89824"
   y2="3.09054"
   id="line15627" />
  <path
   class="fil0 str0"
   d="M7.01241 3.09054l0 0m-0.0905512 0l0.0905512 0"
   id="path15629" />
  <path
   class="fil0 str0"
   d="M7.27619 3.09054l0 0m-0.0905512 0l0.0905512 0"
   id="path15631" />
  <line
   class="fil0 str0"
   x1="2.87856"
   y1="2.9055"
   x2="3.05179"
   y2="2.9055"
   id="line15633" />
  <line
   class="fil0 str0"
   x1="4.25651"
   y1="2.9055"
   x2="4.42974"
   y2="2.9055"
   id="line15635" />
  <line
   class="fil0 str0"
   x1="5.63446"
   y1="2.9055"
   x2="5.80769"
   y2="2.9055"
   id="line15637" />
  <path
   class="fil0 str0"
   d="M7.18564 2.9055l0 0m-0.173228 0l0.173228 0"
   id="path15639" />
  <line
   class="fil0 str0"
   x1="4.07515"
   y1="5.38701"
   x2="3.71324"
   y2="5.02511"
   id="line15641" />
  <line
   class="fil0 str0"
   x1="4.8268"
   y1="6.08298"
   x2="4.49273"
   y2="5.74892"
   id="line15643" />
  <line
   class="fil0 str0"
   x1="3.12856"
   y1="5.90581"
   x2="3.12856"
   y2="5.99637"
   id="line15645" />
  <line
   class="fil0 str0"
   x1="3.12856"
   y1="6.16959"
   x2="3.12856"
   y2="6.26015"
   id="line15647" />
  <line
   class="fil0 str0"
   x1="3.14234"
   y1="3.24802"
   x2="3.14234"
   y2="3.09054"
   id="line15649" />
  <line
   class="fil0 str0"
   x1="3.26045"
   y1="2.45412"
   x2="3.26045"
   y2="2.20412"
   id="line15651" />
  <line
   class="fil0 str0"
   x1="3.30572"
   y1="3.44487"
   x2="3.30572"
   y2="3.69487"
   id="line15653" />
  <line
   class="fil0 str0"
   x1="3.3136"
   y1="5.99637"
   x2="3.3136"
   y2="6.16959"
   id="line15655" />
  <line
   class="fil0 str0"
   x1="3.35887"
   y1="2.85432"
   x2="3.35887"
   y2="2.45412"
   id="line15657" />
  <line
   class="fil0 str0"
   x1="3.55572"
   y1="3.44487"
   x2="3.55572"
   y2="3.69487"
   id="line15659" />
  <line
   class="fil0 str0"
   x1="3.94943"
   y1="2.85432"
   x2="3.75257"
   y2="3.44487"
   id="line15661" />
  <line
   class="fil0 str0"
   x1="3.79676"
   y1="5.6654"
   x2="4.07515"
   y2="5.38701"
   id="line15663" />
  <line
   class="fil0 str0"
   x1="2.57147"
   y1="2.45412"
   x2="2.6699"
   y2="2.45412"
   id="line15665" />
  <line
   class="fil0 str0"
   x1="3.26045"
   y1="2.45412"
   x2="3.35887"
   y2="2.45412"
   id="line15667" />
  <line
   class="fil0 str0"
   x1="3.94943"
   y1="2.45412"
   x2="4.04785"
   y2="2.45412"
   id="line15669" />
  <line
   class="fil0 str0"
   x1="4.6384"
   y1="2.45412"
   x2="4.73683"
   y2="2.45412"
   id="line15671" />
  <line
   class="fil0 str0"
   x1="5.32738"
   y1="2.45412"
   x2="5.4258"
   y2="2.45412"
   id="line15673" />
  <line
   class="fil0 str0"
   x1="6.01635"
   y1="2.45412"
   x2="6.11478"
   y2="2.45412"
   id="line15675" />
  <path
   class="fil0 str0"
   d="M6.80375 2.45412l0 0m-0.0984252 0l0.0984252 0"
   id="path15677" />
  <path
   class="fil0 str0"
   d="M7.49273 2.45412l0 0m-0.0984252 0l0.0984252 0"
   id="path15679" />
  <line
   class="fil0 str0"
   x1="3.75257"
   y1="3.44487"
   x2="3.75257"
   y2="3.69487"
   id="line15681" />
  <line
   class="fil0 str0"
   x1="3.94943"
   y1="2.45412"
   x2="3.94943"
   y2="2.85432"
   id="line15683" />
  <line
   class="fil0 str0"
   x1="4.00257"
   y1="3.44487"
   x2="4.00257"
   y2="3.69487"
   id="line15685" />
  <line
   class="fil0 str0"
   x1="4.04785"
   y1="2.20412"
   x2="4.04785"
   y2="2.45412"
   id="line15687" />
  <line
   class="fil0 str0"
   x1="2.57955"
   y1="2.20412"
   x2="2.6699"
   y2="2.20412"
   id="line15689" />
  <line
   class="fil0 str0"
   x1="3.26045"
   y1="2.20412"
   x2="3.3508"
   y2="2.20412"
   id="line15691" />
  <line
   class="fil0 str0"
   x1="3.9575"
   y1="2.20412"
   x2="4.04785"
   y2="2.20412"
   id="line15693" />
  <line
   class="fil0 str0"
   x1="4.6384"
   y1="2.20412"
   x2="4.72875"
   y2="2.20412"
   id="line15695" />
  <line
   class="fil0 str0"
   x1="5.33545"
   y1="2.20412"
   x2="5.4258"
   y2="2.20412"
   id="line15697" />
  <line
   class="fil0 str0"
   x1="6.01635"
   y1="2.20412"
   x2="6.1067"
   y2="2.20412"
   id="line15699" />
  <path
   class="fil0 str0"
   d="M6.80375 2.20412l0 0m-0.0903504 0l0.0903504 0"
   id="path15701" />
  <path
   class="fil0 str0"
   d="M7.48465 2.20412l0 0m-0.0903465 0l0.0903465 0"
   id="path15703" />
  <path
   class="fil0 str0"
   d="M7.25651 1.92263l0 0m0 0l-0.314961 0"
   id="path15705" />
  <line
   class="fil0 str0"
   x1="5.87856"
   y1="1.92263"
   x2="5.5636"
   y2="1.92263"
   id="line15707" />
  <line
   class="fil0 str0"
   x1="4.50061"
   y1="1.92263"
   x2="4.18565"
   y2="1.92263"
   id="line15709" />
  <line
   class="fil0 str0"
   x1="3.12265"
   y1="1.92263"
   x2="2.80769"
   y2="1.92263"
   id="line15711" />
  <line
   class="fil0 str0"
   x1="3.55572"
   y1="3.44487"
   x2="3.35887"
   y2="2.85432"
   id="line15713" />
  <line
   class="fil0 str0"
   x1="4.16596"
   y1="3.24802"
   x2="4.16596"
   y2="3.09054"
   id="line15715" />
  <line
   class="fil0 str0"
   x1="4.19746"
   y1="4.11448"
   x2="4.19746"
   y2="4.36448"
   id="line15717" />
  <line
   class="fil0 str0"
   x1="4.19746"
   y1="8.05148"
   x2="4.19746"
   y2="7.80148"
   id="line15719" />
  <line
   class="fil0 str0"
   x1="4.25651"
   y1="3.44487"
   x2="4.25651"
   y2="3.24802"
   id="line15721" />
  <line
   class="fil0 str0"
   x1="4.25651"
   y1="3.09054"
   x2="4.25651"
   y2="2.9055"
   id="line15723" />
  <line
   class="fil0 str0"
   x1="4.31557"
   y1="4.56133"
   x2="4.31557"
   y2="4.71881"
   id="line15725" />
  <line
   class="fil0 str0"
   x1="4.31557"
   y1="7.60463"
   x2="4.31557"
   y2="7.44715"
   id="line15727" />
  <line
   class="fil0 str0"
   x1="4.40612"
   y1="4.36448"
   x2="4.40612"
   y2="4.56133"
   id="line15729" />
  <line
   class="fil0 str0"
   x1="4.40612"
   y1="4.71881"
   x2="4.40612"
   y2="4.90385"
   id="line15731" />
  <line
   class="fil0 str0"
   x1="4.40612"
   y1="7.80148"
   x2="4.40612"
   y2="7.60463"
   id="line15733" />
  <line
   class="fil0 str0"
   x1="4.40612"
   y1="7.44715"
   x2="4.40612"
   y2="7.26211"
   id="line15735" />
  <line
   class="fil0 str0"
   x1="4.42974"
   y1="3.44487"
   x2="4.42974"
   y2="3.24802"
   id="line15737" />
  <line
   class="fil0 str0"
   x1="4.42974"
   y1="3.09054"
   x2="4.42974"
   y2="2.9055"
   id="line15739" />
  <line
   class="fil0 str0"
   x1="4.52029"
   y1="3.24802"
   x2="4.52029"
   y2="3.09054"
   id="line15741" />
  <line
   class="fil0 str0"
   x1="5.32738"
   y1="2.85432"
   x2="5.13053"
   y2="3.44487"
   id="line15743" />
  <line
   class="fil0 str0"
   x1="4.49273"
   y1="5.74892"
   x2="3.85244"
   y2="6.38921"
   id="line15745" />
  <line
   class="fil0 str0"
   x1="1.8275684"
   y1="1.6645747"
   x2="-6.6188769"
   y2="1.6645747"
   id="line15747" />
  <line
   class="fil0 str0"
   x1="4.57935"
   y1="4.36448"
   x2="4.57935"
   y2="4.56133"
   id="line15749" />
  <line
   class="fil0 str0"
   x1="4.57935"
   y1="4.71881"
   x2="4.57935"
   y2="4.90385"
   id="line15751" />
  <line
   class="fil0 str0"
   x1="4.57935"
   y1="7.80148"
   x2="4.57935"
   y2="7.60463"
   id="line15753" />
  <line
   class="fil0 str0"
   x1="4.57935"
   y1="7.44715"
   x2="4.57935"
   y2="7.26211"
   id="line15755" />
  <line
   class="fil0 str0"
   x1="4.6384"
   y1="2.45412"
   x2="4.6384"
   y2="2.20412"
   id="line15757" />
  <line
   class="fil0 str0"
   x1="4.6699"
   y1="4.56133"
   x2="4.6699"
   y2="4.71881"
   id="line15759" />
  <line
   class="fil0 str0"
   x1="4.6699"
   y1="7.60463"
   x2="4.6699"
   y2="7.44715"
   id="line15761" />
  <line
   class="fil0 str0"
   x1="4.68368"
   y1="3.44487"
   x2="4.68368"
   y2="3.69487"
   id="line15763" />
  <line
   class="fil0 str0"
   x1="4.73683"
   y1="2.85432"
   x2="4.73683"
   y2="2.45412"
   id="line15765" />
  <line
   class="fil0 str0"
   x1="4.78801"
   y1="4.11448"
   x2="4.78801"
   y2="4.36448"
   id="line15767" />
  <line
   class="fil0 str0"
   x1="4.78801"
   y1="8.05148"
   x2="4.78801"
   y2="7.80148"
   id="line15769" />
  <line
   class="fil0 str0"
   x1="4.93368"
   y1="3.44487"
   x2="4.93368"
   y2="3.69487"
   id="line15771" />
  <line
   class="fil0 str0"
   x1="4.1865"
   y1="6.72328"
   x2="4.8268"
   y2="6.08298"
   id="line15773" />
  <line
   class="fil0 str0"
   x1="5.13053"
   y1="3.44487"
   x2="5.13053"
   y2="3.69487"
   id="line15775" />
  <line
   class="fil0 str0"
   x1="5.32738"
   y1="2.45412"
   x2="5.32738"
   y2="2.85432"
   id="line15777" />
  <line
   class="fil0 str0"
   x1="5.38053"
   y1="3.44487"
   x2="5.38053"
   y2="3.69487"
   id="line15779" />
  <line
   class="fil0 str0"
   x1="5.4258"
   y1="2.20412"
   x2="5.4258"
   y2="2.45412"
   id="line15781" />
  <line
   class="fil0 str0"
   x1="4.93368"
   y1="3.44487"
   x2="4.73683"
   y2="2.85432"
   id="line15783" />
  <line
   class="fil0 str0"
   x1="5.54391"
   y1="3.24802"
   x2="5.54391"
   y2="3.09054"
   id="line15785" />
  <line
   class="fil0 str0"
   x1="5.63446"
   y1="3.44487"
   x2="5.63446"
   y2="3.24802"
   id="line15787" />
  <line
   class="fil0 str0"
   x1="5.63446"
   y1="3.09054"
   x2="5.63446"
   y2="2.9055"
   id="line15789" />
  <line
   class="fil0 str0"
   x1="5.67187"
   y1="6.16959"
   x2="5.67187"
   y2="5.99637"
   id="line15791" />
  <line
   class="fil0 str0"
   x1="5.80769"
   y1="3.44487"
   x2="5.80769"
   y2="3.24802"
   id="line15793" />
  <line
   class="fil0 str0"
   x1="5.80769"
   y1="3.09054"
   x2="5.80769"
   y2="2.9055"
   id="line15795" />
  <line
   class="fil0 str0"
   x1="5.85691"
   y1="6.26015"
   x2="5.85691"
   y2="6.16959"
   id="line15797" />
  <line
   class="fil0 str0"
   x1="5.85691"
   y1="5.99637"
   x2="5.85691"
   y2="5.90581"
   id="line15799" />
  <line
   class="fil0 str0"
   x1="5.89824"
   y1="3.24802"
   x2="5.89824"
   y2="3.09054"
   id="line15801" />
  <line
   class="fil0 str0"
   x1="6.01439"
   y1="6.26015"
   x2="6.01439"
   y2="6.16959"
   id="line15803" />
  <line
   class="fil0 str0"
   x1="6.01439"
   y1="5.99637"
   x2="6.01439"
   y2="5.90581"
   id="line15805" />
  <path
   class="fil0 str0"
   d="M6.70533 2.85432l0 0m0 0l-0.19685 0.590551"
   id="path15807" />
  <line
   class="fil0 str0"
   x1="6.01635"
   y1="2.45412"
   x2="6.01635"
   y2="2.20412"
   id="line15809" />
  <line
   class="fil0 str0"
   x1="6.06163"
   y1="3.44487"
   x2="6.06163"
   y2="3.69487"
   id="line15811" />
  <path
   class="fil0 str0"
   d="M6.11478 2.45412l0 0m0 0.400201l0 -0.400201"
   id="path15813" />
  <path
   class="fil0 str0"
   d="M6.21123 5.7877l0 0m0 0l0 0.208661"
   id="path15815" />
  <path
   class="fil0 str0"
   d="M6.21123 6.16959l0 0m0 0l0 0.208661"
   id="path15817" />
  <path
   class="fil0 str0"
   d="M6.31163 3.44487l0 0m0 0l0 0.25"
   id="path15819" />
  <path
   class="fil0 str0"
   d="M6.46123 6.37826l0 0m0 0.0984252l0 -0.0984252"
   id="path15821" />
  <path
   class="fil0 str0"
   d="M6.46123 5.68928l0 0m0 0.0984252l0 -0.0984252"
   id="path15823" />
  <line
   class="fil0 str0"
   x1="6.31163"
   y1="3.44487"
   x2="6.11478"
   y2="2.85432"
   id="line15825" />
  <path
   class="fil0 str0"
   d="M6.50848 3.44487l0 0m0 0l0 0.25"
   id="path15827" />
  <path
   class="fil0 str0"
   d="M6.70533 2.45412l0 0m0 0l0 0.400201"
   id="path15829" />
  <path
   class="fil0 str0"
   d="M6.75848 3.44487l0 0m0 0l0 0.25"
   id="path15831" />
  <path
   class="fil0 str0"
   d="M6.80375 2.20412l0 0m0 0l0 0.25"
   id="path15833" />
  <path
   class="fil0 str0"
   d="M6.92186 3.09054l0 0m0 0.15748l0 -0.15748"
   id="path15835" />
  <path
   class="fil0 str0"
   d="M7.01241 3.24802l0 0m0 0.19685l0 -0.19685"
   id="path15837" />
  <path
   class="fil0 str0"
   d="M7.01241 2.9055l0 0m0 0.185039l0 -0.185039"
   id="path15839" />
  <path
   class="fil0 str0"
   d="M7.18564 3.24802l0 0m0 0.19685l0 -0.19685"
   id="path15841" />
  <path
   class="fil0 str0"
   d="M7.18564 2.9055l0 0m0 0.185039l0 -0.185039"
   id="path15843" />
  <path
   class="fil0 str0"
   d="M7.27619 3.09054l0 0m0 0.15748l0 -0.15748"
   id="path15845" />
  <path
   class="fil0 str0"
   d="M7.3943 2.20412l0 0m0 0.25l0 -0.25"
   id="path15847" />
  <path
   class="fil0 str0"
   d="M7.43958 3.44487l0 0m0 0l0 0.25"
   id="path15849" />
  <path
   class="fil0 str0"
   d="M7.49273 2.45412l0 0m0 0.400201l0 -0.400201"
   id="path15851" />
  <path
   class="fil0 str0"
   d="M7.68958 3.44487l0 0m0 0l0 0.25"
   id="path15853" />
  <line
   class="fil0 str0"
   x1="7.68958"
   y1="3.44487"
   x2="7.49273"
   y2="2.85432"
   id="line15855" />
  <path
   class="fil0 str0"
   d="m -7.012577,6.1888182 c 0,0.104417 0.04148,0.204555 0.115311,0.27839 0.073835,0.073835 0.173972,0.115311 0.27839,0.115311"
   id="path15857" />
  <path
   class="fil0 str0"
   d="m -6.048417,5.4254482 c 0,-0.047835 -0.03878,-0.086614 -0.086614,-0.086614 -0.047835,0 -0.086614,0.038779 -0.086614,0.086614 0,0.047835 0.038779,0.086614 0.086614,0.086614 0.047835,0 0.086614,-0.038779 0.086614,-0.086614 z"
   id="path15859" />
  <path
   class="fil0 str0"
   d="m -3.441307,5.4254482 c 0,-0.047835 -0.038779,-0.086614 -0.086614,-0.086614 -0.047839,0 -0.086614,0.038779 -0.086614,0.086614 0,0.047835 0.038776,0.086614 0.08661,0.086614 0.047839,0 0.086618,-0.038779 0.086618,-0.086614 z"
   id="path15861" />
  <path
   class="fil0 str0"
   d="m -6.618877,1.6612582 c -0.104417,0 -0.204555,0.04148 -0.27839,0.115315 -0.073831,0.073831 -0.115311,0.173972 -0.115311,0.278386"
   id="path15863" />
  <path
   class="fil0 str0"
   d="m -6.048417,2.8183382 c 0,-0.047839 -0.03878,-0.086614 -0.086614,-0.086614 -0.047835,0 -0.086614,0.038776 -0.086614,0.08661 0,0.047839 0.038779,0.086614 0.086614,0.086618 0.047835,0 0.086614,-0.038779 0.086614,-0.086614 z"
   id="path15865" />
  <path
   class="fil0 str0"
   d="m -3.441307,2.8183382 c 0,-0.047839 -0.038779,-0.086614 -0.086614,-0.086614 -0.047839,0 -0.086614,0.038776 -0.086614,0.08661 0,0.047839 0.038776,0.086614 0.08661,0.086618 0.047839,0 0.086618,-0.038779 0.086618,-0.086614 z"
   id="path15867" />
  <path
   class="fil0 str0"
   d="m -0.31402251,5.3908682 c 0,-0.034516 -0.027984,-0.0625 -0.0625,-0.0625 -0.034516,0 -0.0625,0.027984 -0.0625,0.0625 0,0.034516 0.027984,0.0625 0.0625,0.0625 0.034516,0 0.0625,-0.027984 0.0625,-0.0625 z"
   id="path15869" />
  <path
   class="fil0 str0"
   d="m -0.31402251,4.2908682 c 0,-0.034516 -0.027984,-0.0625 -0.0625,-0.0625 -0.034516,0 -0.0625,0.027984 -0.0625,0.0625 0,0.034516 0.027984,0.0625 0.0625,0.0625 0.034516,0 0.0625,-0.027984 0.0625,-0.0625 z"
   id="path15871" />
  <path
   class="fil0 str0"
   d="M4.09903 4.11448c-0.794689,0.158941 -1.41587,0.780118 -1.5748,1.5748"
   id="path15873" />
  <path
   class="fil0 str0"
   d="M2.52423 6.47668c0.158937,0.794689 0.780114,1.41587 1.5748,1.5748"
   id="path15875" />
  <path
   class="fil0 str0"
   d="M4.88643 8.05148c0.794685,-0.158937 1.41586,-0.780114 1.5748,-1.5748"
   id="path15877" />
  <path
   class="fil0 str0"
   d="M6.46123 5.68928c-0.158937,-0.794685 -0.780114,-1.41586 -1.5748,-1.5748"
   id="path15879" />
  <path
   class="fil0 str0"
   d="m 1.8218982,6.5825182 c 0.1044129,0 0.2045547,-0.041476 0.2783897,-0.115311 0.073831,-0.073835 0.1153108,-0.173972 0.1153108,-0.27839"
   id="path15881" />
  <path
   class="fil0 str0"
   d="M4.00028 6.60496c0,-0.0163071 -0.0132205,-0.0295276 -0.0295276,-0.0295276 -0.0163071,0 -0.0295276,0.0132205 -0.0295276,0.0295276 0,0.0163071 0.0132205,0.0295276 0.0295276,0.0295276 0.0163071,0 0.0295276,-0.0132205 0.0295276,-0.0295276z"
   id="path15883" />
  <path
   class="fil0 str0"
   d="M4.73801 5.86723c0,-0.0163071 -0.0132205,-0.0295276 -0.0295276,-0.0295276 -0.016311,0 -0.0295276,0.0132205 -0.0295276,0.0295276 0,0.0163071 0.0132165,0.0295276 0.0295276,0.0295276 0.0163071,0 0.0295276,-0.0132205 0.0295276,-0.0295276z"
   id="path15885" />
  <path
   class="fil0 str0"
   d="M2.80769 1.92263c-0.117276,0.0511811 -0.202358,0.156161 -0.228146,0.281496"
   id="path15887" />
  <path
   class="fil0 str0"
   d="M3.3508 2.20412c-0.0257835,-0.125335 -0.11087,-0.230315 -0.228142,-0.281496"
   id="path15889" />
  <path
   class="fil0 str0"
   d="M4.18565 1.92263c-0.117276,0.0511811 -0.202358,0.156161 -0.228146,0.281496"
   id="path15891" />
  <path
   class="fil0 str0"
   d="M4.72875 2.20412c-0.0257835,-0.125335 -0.11087,-0.230315 -0.228142,-0.281496"
   id="path15893" />
  <path
   class="fil0 str0"
   d="M5.5636 1.92263c-0.117276,0.0511811 -0.202358,0.156161 -0.228146,0.281496"
   id="path15895" />
  <path
   class="fil0 str0"
   d="M6.1067 2.20412c-0.0257795,-0.125335 -0.110866,-0.230315 -0.228138,-0.281496"
   id="path15897" />
  <path
   class="fil0 str0"
   d="M6.94155 1.92263c-0.117276,0.0511811 -0.202358,0.156161 -0.228146,0.281496"
   id="path15899" />
  <path
   class="fil0 str0"
   d="M7.48465 2.20412c-0.0257835,-0.125335 -0.11087,-0.230315 -0.228142,-0.281496"
   id="path15901" />
  <path
   class="fil0 str0"
   d="m 2.2155977,2.0549582 c 0,-0.104413 -0.04148,-0.204555 -0.1153108,-0.278386 -0.073835,-0.073835 -0.1739758,-0.115315 -0.2783897,-0.115315"
   id="path15903" />
  <path
   class="fil0 str0"
   d="M3.05179 2.32912c0,-0.0478386 -0.0387795,-0.0866142 -0.0866142,-0.0866142 -0.0478346,0 -0.0866142,0.0387756 -0.0866142,0.0866142 0,0.0478346 0.0387756,0.0866142 0.0866142,0.0866142 0.0478346,0 0.0866142,-0.0387795 0.0866142,-0.0866142z"
   id="path15905" />
  <path
   class="fil0 str0"
   d="M4.42974 2.32912c0,-0.0478386 -0.0387795,-0.0866142 -0.0866142,-0.0866142 -0.0478346,0 -0.0866142,0.0387756 -0.0866142,0.0866142 0,0.0478346 0.0387756,0.0866142 0.0866142,0.0866142 0.0478346,0 0.0866142,-0.0387795 0.0866142,-0.0866142z"
   id="path15907" />
  <path
   class="fil0 str0"
   d="M5.80769 2.32912c0,-0.0478386 -0.0387795,-0.0866142 -0.0866142,-0.0866142 -0.0478346,0 -0.0866142,0.0387756 -0.0866142,0.0866142 0,0.0478346 0.0387756,0.0866142 0.0866142,0.0866142 0.0478346,0 0.0866142,-0.0387795 0.0866142,-0.0866142z"
   id="path15909" />
  <path
   class="fil0 str0"
   d="M7.18564 2.32912c0,-0.0478386 -0.0387795,-0.0866142 -0.0866142,-0.0866142 -0.0478346,0 -0.0866142,0.0387756 -0.0866142,0.0866142 0,0.0478346 0.0387756,0.0866142 0.0866142,0.0866142 0.0478346,0 0.0866142,-0.0387795 0.0866142,-0.0866142z"
   id="path15911" />
  <path
   class="fil0 str0"
   d="m 1.7159784,4.1308682 c 0,-0.034516 -0.027984,-0.0625 -0.0625,-0.0625 -0.034516,0 -0.0625,0.027984 -0.0625,0.0625 0,0.034516 0.027984,0.0625 0.0625,0.0625 0.034516,0 0.0625,-0.027984 0.0625,-0.0625 z"
   id="path15913" />
  <path
   class="fil0 str0"
   d="m 1.6259785,6.0008682 c 0,-0.034516 -0.027984,-0.0625 -0.0625,-0.0625 -0.034516,0 -0.0625,0.027984 -0.0625,0.0625 0,0.034516 0.027984,0.0625 0.0625,0.0625 0.034516,0 0.0625,-0.027984 0.0625,-0.0625 z"
   id="path15915" />
  
 </g>
 <g
   id="__x0023_Layer_x0020_1"
   inkscape:label="__x0023_Layer 1">
  <metadata
   id="CorelCorpID_1Corel-Layer" />
  <path
   class="fil1 str2"
   d="M7.76698 4.37201l-0.39611 0.554472 -0.320083 0.585984 0 0.310819 0.000582677 0 0 0.000208661 0.19472 0 0 -0.000208661 0.0416654 0 0 -0.199484 0.26378 0 0 -0.196736 -0.0892913 0 0 -0.156736 0.0892913 0 0 -0.194445 0.174598 0 0 0.194445 0.091248 0 0 0.156736 -0.091248 0 0 0.196736 0.266709 0 0 0.199319 0.0405827 0 0 5.51181e-005 0.196665 0 0 -0.198083 -0.000165354 0 0 -0.00129134 0.000165354 0 0 -0.195583 -0.0013622 0 -0.143819 -0.829264 -0.317929 -0.226945zm0 0z"
   id="path15921" />
  <path
   class="fil1 str3"
   d="M7.92784 4.73583l0.0360276 0.0260945 -0.117516 0.162169 -0.0360276 -0.0260984 0.117516 -0.162165zm0 0z"
   id="path15923" />
  
  
  
  
  
  
  <path
   class="fil1 str2"
   d="M8.83891 4.3789l0.39611 0.554472 0.320098 0.585988 0 0.310874 -0.000653543 0 0 0.000208661 -0.194665 0 0 -0.000208661 -0.0416693 0 0 -0.199484 -0.263776 0 0 -0.196736 0.0893031 0 0 -0.156791 -0.0893031 0 0 -0.194445 -0.174587 0 0 0.194445 -0.0912638 0 0 0.156791 0.0912638 0 0 0.196736 -0.266705 0 0 0.199319 -0.237307 0 0 -0.198028 0.000153543 0 0 -0.00129134 -0.000153543 0 0 -0.195587 0.00134646 0 0.143835 -0.829319 0.317972 -0.226945zm0 0z"
   id="path15937" />
  <path
   class="fil1 str3"
   d="M8.67799 4.74272l-0.0359567 0.0261496 0.117496 0.162169 0.0360315 -0.0261535 -0.117571 -0.162165zm0 0z"
   id="path15939" />
 </g>
</svg>
